<?xml version="1.0" encoding="UTF-8" standalone="no"?>
<!DOCTYPE svg PUBLIC "-//W3C//DTD SVG 1.1//EN" "http://www.w3.org/Graphics/SVG/1.1/DTD/svg11.dtd">
<svg width="100%" height="100%" viewBox="0 0 477 238" version="1.1" xmlns="http://www.w3.org/2000/svg" xmlns:xlink="http://www.w3.org/1999/xlink" xml:space="preserve" xmlns:serif="http://www.serif.com/" style="fill-rule:evenodd;clip-rule:evenodd;stroke-linejoin:round;stroke-miterlimit:2;">
    <g transform="matrix(1,0,0,1,-385.61,-357.633)">
        <g id="Layer1">
            <g transform="matrix(1.09994,0,0,1.09994,-101.947,-61.0645)">
                <path d="M584.076,459.728C599.275,439.201 623.668,425.883 651.147,425.883C697.179,425.883 734.551,463.255 734.551,509.287C734.551,517.114 733.47,524.691 731.45,531.877C703.919,535.814 687.674,527.224 678.295,517.574C678.84,515.191 679.125,512.664 679.125,510.019C679.125,492.675 666.862,480.412 649.518,480.412C639.258,480.412 630.775,484.703 625.558,491.8C621.58,487.223 617.776,483.247 614.156,479.794C622.132,469.79 634.103,463.109 647.644,462.177C647.939,462.157 648.168,461.913 648.168,461.618C648.168,461.488 648.168,461.341 648.165,461.189C648.165,460.81 648.007,460.448 647.729,460.191C647.45,459.934 647.077,459.804 646.699,459.834C632.85,461.001 620.621,467.895 612.389,478.137C609.924,475.862 607.548,473.833 605.264,472.023C615.256,459.725 630.112,451.535 646.891,450.397C647.609,450.352 648.168,449.756 648.168,449.036C648.168,449.017 648.168,448.997 648.165,448.978C648.165,448.542 647.985,448.125 647.666,447.827C647.348,447.528 646.92,447.375 646.485,447.404C628.898,448.647 613.334,457.265 602.869,470.179C600.076,468.092 597.431,466.339 594.942,464.869C607.163,449.383 625.717,439.121 646.681,438.008C647.513,437.967 648.168,437.28 648.168,436.446C648.168,436.428 648.168,436.41 648.164,436.391C648.164,435.847 647.941,435.327 647.546,434.953C647.152,434.579 646.621,434.383 646.078,434.412C623.997,435.697 604.491,446.642 591.729,463.079C588.954,461.627 586.399,460.538 584.076,459.728Z" style="fill:url(#_Linear1);"/>
            </g>
            <g transform="matrix(0.32326,0,0,0.32326,452.232,343.081)">
                <path d="M496.732,449.835C516.799,449.835 533.09,466.126 533.09,486.192C533.09,506.259 516.799,522.55 496.732,522.55C476.666,522.55 460.375,506.259 460.375,486.192C460.375,466.126 476.666,449.835 496.732,449.835ZM496.732,475.194C490.662,475.194 485.734,480.122 485.734,486.192C485.734,492.262 490.662,497.19 496.732,497.19C502.802,497.19 507.73,492.262 507.73,486.192C507.73,480.122 502.802,475.194 496.732,475.194Z" style="fill:rgb(252,119,1);"/>
            </g>
            <path d="M623.5,530.841C634.042,527.49 641.616,519.26 644.136,508.236C654.453,518.85 672.321,528.299 702.604,523.968C692.19,561.012 659.076,588.594 619.251,590.727C621.259,586.791 622.894,583.016 624.211,579.405C640.684,577.249 655.621,570.179 667.502,559.719C667.847,559.411 668.01,558.946 667.932,558.489C667.854,558.032 667.546,557.647 667.118,557.471L667.114,557.477C665.882,556.968 664.47,557.191 663.454,558.054C652.861,566.927 639.873,573.033 625.607,575.257C626.676,571.796 627.448,568.5 627.976,565.374C637.523,563.375 646.338,559.371 653.958,553.823C654.273,553.59 654.438,553.205 654.39,552.816C654.342,552.427 654.088,552.093 653.726,551.944L653.723,551.95C652.656,551.51 651.44,551.641 650.492,552.299C643.919,556.797 636.475,560.113 628.467,561.941C628.925,558.038 629.001,554.425 628.808,551.11C632.276,550.129 635.603,548.811 638.752,547.195C639.029,547.05 639.197,546.758 639.183,546.445C639.169,546.133 638.975,545.856 638.685,545.737L638.682,545.743C637.71,545.342 636.613,545.368 635.662,545.816C633.39,546.866 631.029,547.756 628.593,548.471C627.779,540.72 625.522,534.794 623.5,530.841Z" style="fill:url(#_Linear2);"/>
            <g>
                <path d="M563.96,485.955C570.284,487.731 576.945,488.326 581.701,488.499C582.753,485.335 584.248,482.444 586.129,479.885C581.753,474.852 577.569,470.478 573.587,466.68C569.124,472.276 565.799,478.818 563.96,485.955Z" style="fill:url(#_Linear3);"/>
                <path d="M540.501,444.609L543.714,455.831C545.31,453.219 547.048,450.703 548.919,448.294C543.703,445.399 542.095,445.281 540.501,444.609Z" style="fill:url(#_Linear4);"/>
                <path d="M544.967,461.675C546.148,464.636 548.12,469.14 550.809,473.797C553.366,467.359 556.879,461.403 561.172,456.104C558.1,453.809 555.191,451.88 552.453,450.263C549.639,453.828 547.131,457.646 544.967,461.675Z" style="fill:url(#_Linear5);"/>
                <path d="M553.012,477.378C554.479,479.612 556.107,481.798 557.888,483.782C559.031,484.297 560.216,484.758 561.424,485.17C563.38,477.642 566.911,470.746 571.644,464.857C568.932,462.355 566.318,460.123 563.806,458.132C559.179,463.827 555.501,470.323 553.012,477.378Z" style="fill:url(#_Linear6);"/>
            </g>
            <g>
                <path d="M529.655,517.668C529.655,517.668 532.309,505.299 519.662,486.312C517.235,481.135 522.452,471.395 528.538,471.957C536.876,472.727 537.531,475.824 538.452,477.802C539.374,479.779 539.432,484.997 542.745,489.384C546.057,493.772 548.125,498.924 550.359,500.106C550.359,500.106 574.038,497.991 586.927,506.483C600.401,515.361 610.679,525.046 613.851,548.08C608.469,530.451 594.912,516.037 583.949,510.594C571.321,504.324 540.552,503.702 529.655,517.668ZM528.995,482.849C524.038,486.276 527.734,492.759 532.44,491.574C537.146,490.389 535.242,478.53 528.995,482.849ZM525.078,532.168C525.078,532.168 536.943,512 561.305,512C585.667,512 608.331,531.153 608.331,554.737C608.331,578.321 597.735,586.161 583.177,595.605C583.177,595.605 616.27,571.82 594.992,537.854C573.239,503.129 529.707,524.937 525.12,538.464L525.078,532.168Z" style="fill:url(#_Linear7);"/>
                <path d="M585.141,539.755C586.553,541.501 587.903,543.489 589.168,545.748C604.699,573.477 569.51,609.611 542.141,584.581C526.936,570.675 526.179,556.96 530.426,546.829C530.426,546.829 537.013,569.501 564.873,574.153C585.834,577.653 589.326,554.575 585.141,539.755Z" style="fill:url(#_Linear8);"/>
                <path d="M530.426,546.829C530.426,546.829 537.013,569.501 564.873,574.153C585.834,577.653 589.326,554.575 585.141,539.755C569.222,520.068 545.393,531.132 545.393,531.132C540.425,532.913 533.824,538.724 530.426,546.829Z" style="fill:url(#_Linear9);"/>
            </g>
            <g transform="matrix(1,0,0,1,-3.59726,-0.308621)">
                <g transform="matrix(1,0,0,1,0.328625,-2.27374e-13)">
                    <path d="M730.093,451.702C731.097,451.702 732.059,452.101 732.769,452.81C733.478,453.52 733.877,454.482 733.877,455.486C733.877,467.698 733.877,505.977 733.877,518.189C733.877,519.193 733.478,520.156 732.769,520.865C732.059,521.575 731.097,521.973 730.093,521.973C730.092,521.973 730.091,521.973 730.089,521.973C729.086,521.973 728.123,521.575 727.414,520.865C726.704,520.156 726.305,519.193 726.305,518.189C726.305,505.977 726.305,467.698 726.305,455.486C726.305,454.482 726.704,453.52 727.414,452.81C728.123,452.101 729.086,451.702 730.089,451.702C730.091,451.702 730.092,451.702 730.093,451.702Z" style="fill:url(#_Linear10);"/>
                </g>
                <g transform="matrix(1,0,0,0.221867,0,378.824)">
                    <path d="M717.365,451.702C718.369,451.702 719.331,453.499 720.041,456.697C720.751,459.896 721.149,464.234 721.149,468.757C721.149,479.732 721.149,493.943 721.149,504.918C721.149,509.442 720.751,513.78 720.041,516.978C719.331,520.177 718.369,521.973 717.365,521.973C717.364,521.973 717.363,521.973 717.362,521.973C716.358,521.973 715.396,520.177 714.686,516.978C713.976,513.78 713.578,509.442 713.578,504.918C713.578,493.943 713.578,479.732 713.578,468.757C713.578,464.234 713.976,459.896 714.686,456.697C715.396,453.499 716.358,451.702 717.362,451.702C717.363,451.702 717.364,451.702 717.365,451.702Z" style="fill:url(#_Linear11);"/>
                </g>
                <g transform="matrix(1,0,0,0.315536,1.63724,333.223)">
                    <path d="M741.844,451.702C743.934,451.702 745.628,457.071 745.628,463.694C745.628,476.616 745.628,497.06 745.628,509.981C745.628,516.604 743.934,521.973 741.844,521.973C741.843,521.973 741.842,521.973 741.84,521.973C739.751,521.973 738.056,516.604 738.056,509.981C738.056,497.06 738.056,476.616 738.056,463.694C738.056,457.071 739.751,451.702 741.84,451.702C741.842,451.702 741.843,451.702 741.844,451.702Z" style="fill:url(#_Linear12);"/>
                </g>
                <g transform="matrix(1,0,0,0.631508,2.3636,179.396)">
                    <path d="M754.227,451.702C756.317,451.702 758.011,454.385 758.011,457.694C758.011,470.965 758.011,502.71 758.011,515.981C758.011,519.291 756.317,521.973 754.227,521.973C754.226,521.973 754.224,521.973 754.223,521.973C752.133,521.973 750.439,519.291 750.439,515.981C750.439,502.71 750.439,470.965 750.439,457.694C750.439,454.385 752.133,451.702 754.223,451.702C754.224,451.702 754.226,451.702 754.227,451.702Z" style="fill:url(#_Linear13);"/>
                </g>
                <g transform="matrix(1,0,0,1,2.86646,1.13687e-13)">
                    <path d="M766.752,451.702C767.756,451.702 768.718,452.101 769.428,452.81C770.137,453.52 770.536,454.482 770.536,455.486C770.536,467.698 770.536,505.977 770.536,518.189C770.536,519.193 770.137,520.156 769.428,520.865C768.718,521.575 767.756,521.973 766.752,521.973C766.751,521.973 766.75,521.973 766.749,521.973C765.745,521.973 764.783,521.575 764.073,520.865C763.363,520.156 762.965,519.193 762.965,518.189C762.965,505.977 762.965,467.698 762.965,455.486C762.965,454.482 763.363,453.52 764.073,452.81C764.783,452.101 765.745,451.702 766.749,451.702C766.75,451.702 766.751,451.702 766.752,451.702Z" style="fill:url(#_Linear14);"/>
                </g>
                <g transform="matrix(1,0,0,1.84695,3.7156,-412.326)">
                    <path d="M778.931,451.702C779.935,451.702 780.898,451.918 781.607,452.302C782.317,452.686 782.715,453.207 782.715,453.751C782.715,464.005 782.715,509.67 782.715,519.925C782.715,520.468 782.317,520.989 781.607,521.373C780.898,521.758 779.935,521.973 778.931,521.973C778.93,521.973 778.929,521.973 778.928,521.973C777.924,521.973 776.962,521.758 776.252,521.373C775.543,520.989 775.144,520.468 775.144,519.925C775.144,509.67 775.144,464.005 775.144,453.751C775.144,453.207 775.543,452.686 776.252,452.302C776.962,451.918 777.924,451.702 778.928,451.702C778.929,451.702 778.93,451.702 778.931,451.702Z" style="fill:url(#_Linear15);"/>
                </g>
                <g transform="matrix(1,0,0,0.860991,3.50901,67.6747)">
                    <path d="M791.715,451.702C793.804,451.702 795.499,453.67 795.499,456.097C795.499,468.716 795.499,504.96 795.499,517.579C795.499,520.006 793.804,521.973 791.715,521.973C791.713,521.973 791.712,521.973 791.711,521.973C789.621,521.973 787.927,520.006 787.927,517.579C787.927,504.96 787.927,468.716 787.927,456.097C787.927,453.67 789.621,451.702 791.711,451.702C791.712,451.702 791.713,451.702 791.715,451.702Z" style="fill:url(#_Linear16);"/>
                </g>
                <g transform="matrix(1,0,0,0.315536,4.42725,333.223)">
                    <path d="M803.896,451.702C805.986,451.702 807.68,457.071 807.68,463.694C807.68,476.616 807.68,497.06 807.68,509.981C807.68,516.604 805.986,521.973 803.896,521.973C803.895,521.973 803.894,521.973 803.893,521.973C801.803,521.973 800.109,516.604 800.109,509.981C800.109,497.06 800.109,476.616 800.109,463.694C800.109,457.071 801.803,451.702 803.893,451.702C803.894,451.702 803.895,451.702 803.896,451.702Z" style="fill:url(#_Linear17);"/>
                </g>
                <g transform="matrix(1,0,0,0.860991,4.46621,67.6747)">
                    <path d="M816.947,451.702C819.037,451.702 820.731,453.67 820.731,456.097C820.731,468.716 820.731,504.96 820.731,517.579C820.731,520.006 819.037,521.973 816.947,521.973C816.946,521.973 816.944,521.973 816.943,521.973C814.853,521.973 813.159,520.006 813.159,517.579C813.159,504.96 813.159,468.716 813.159,456.097C813.159,453.67 814.853,451.702 816.943,451.702C816.944,451.702 816.946,451.702 816.947,451.702Z" style="fill:url(#_Linear18);"/>
                </g>
                <g transform="matrix(6.12323e-17,-1,7.0056,4.28969e-16,-3013.95,904.008)">
                    <path d="M416.862,485.777L419.077,490.766L414.646,490.766L416.862,485.777Z" style="fill:url(#_Linear19);"/>
                </g>
            </g>
            <g transform="matrix(1,0,0,1,-308.731,0)">
                <g transform="matrix(1,0,0,1,86.8538,0)">
                    <path d="M730.093,451.702C731.097,451.702 732.059,452.101 732.769,452.81C733.478,453.52 733.877,454.482 733.877,455.486C733.877,467.698 733.877,505.977 733.877,518.189C733.877,519.193 733.478,520.156 732.769,520.865C732.059,521.575 731.097,521.973 730.093,521.973C730.092,521.973 730.091,521.973 730.089,521.973C729.086,521.973 728.123,521.575 727.414,520.865C726.704,520.156 726.305,519.193 726.305,518.189C726.305,505.977 726.305,467.698 726.305,455.486C726.305,454.482 726.704,453.52 727.414,452.81C728.123,452.101 729.086,451.702 730.089,451.702C730.091,451.702 730.092,451.702 730.093,451.702Z" style="fill:url(#_Linear20);"/>
                </g>
                <g transform="matrix(1,0,0,0.315536,-3.26671,333.223)">
                    <path d="M741.844,451.702C743.934,451.702 745.628,457.071 745.628,463.694C745.628,476.616 745.628,497.06 745.628,509.981C745.628,516.604 743.934,521.973 741.844,521.973C741.843,521.973 741.842,521.973 741.84,521.973C739.751,521.973 738.056,516.604 738.056,509.981C738.056,497.06 738.056,476.616 738.056,463.694C738.056,457.071 739.751,451.702 741.84,451.702C741.842,451.702 741.843,451.702 741.844,451.702Z" style="fill:url(#_Linear21);"/>
                </g>
                <g transform="matrix(1,0,0,0.631508,23.5092,179.396)">
                    <path d="M754.227,451.702C756.317,451.702 758.011,454.385 758.011,457.694C758.011,470.965 758.011,502.71 758.011,515.981C758.011,519.291 756.317,521.973 754.227,521.973C754.226,521.973 754.224,521.973 754.223,521.973C752.133,521.973 750.439,519.291 750.439,515.981C750.439,502.71 750.439,470.965 750.439,457.694C750.439,454.385 752.133,451.702 754.223,451.702C754.224,451.702 754.226,451.702 754.227,451.702Z" style="fill:url(#_Linear22);"/>
                </g>
                <g transform="matrix(1,0,0,1,-15.1343,1.13687e-13)">
                    <path d="M766.752,451.702C767.756,451.702 768.718,452.101 769.428,452.81C770.137,453.52 770.536,454.482 770.536,455.486C770.536,467.698 770.536,505.977 770.536,518.189C770.536,519.193 770.137,520.156 769.428,520.865C768.718,521.575 767.756,521.973 766.752,521.973C766.751,521.973 766.75,521.973 766.749,521.973C765.745,521.973 764.783,521.575 764.073,520.865C763.363,520.156 762.965,519.193 762.965,518.189C762.965,505.977 762.965,467.698 762.965,455.486C762.965,454.482 763.363,453.52 764.073,452.81C764.783,452.101 765.745,451.702 766.749,451.702C766.75,451.702 766.751,451.702 766.752,451.702Z" style="fill:url(#_Linear23);"/>
                </g>
                <g transform="matrix(1,0,0,1.84695,24.946,-412.326)">
                    <path d="M778.931,451.702C779.935,451.702 780.898,451.918 781.607,452.302C782.317,452.686 782.715,453.207 782.715,453.751C782.715,464.005 782.715,509.67 782.715,519.925C782.715,520.468 782.317,520.989 781.607,521.373C780.898,521.758 779.935,521.973 778.931,521.973C778.93,521.973 778.929,521.973 778.928,521.973C777.924,521.973 776.962,521.758 776.252,521.373C775.543,520.989 775.144,520.468 775.144,519.925C775.144,509.67 775.144,464.005 775.144,453.751C775.144,453.207 775.543,452.686 776.252,452.302C776.962,451.918 777.924,451.702 778.928,451.702C778.929,451.702 778.93,451.702 778.931,451.702Z" style="fill:url(#_Linear24);"/>
                </g>
                <g transform="matrix(1,0,0,0.860991,-27.0138,67.6747)">
                    <path d="M791.715,451.702C793.804,451.702 795.499,453.67 795.499,456.097C795.499,468.716 795.499,504.96 795.499,517.579C795.499,520.006 793.804,521.973 791.715,521.973C791.713,521.973 791.712,521.973 791.711,521.973C789.621,521.973 787.927,520.006 787.927,517.579C787.927,504.96 787.927,468.716 787.927,456.097C787.927,453.67 789.621,451.702 791.711,451.702C791.712,451.702 791.713,451.702 791.715,451.702Z" style="fill:url(#_Linear25);"/>
                </g>
                <g transform="matrix(1,0,0,0.860991,-26.112,67.6747)">
                    <path d="M816.947,451.702C819.037,451.702 820.731,453.67 820.731,456.097C820.731,468.716 820.731,504.96 820.731,517.579C820.731,520.006 819.037,521.973 816.947,521.973C816.946,521.973 816.944,521.973 816.943,521.973C814.853,521.973 813.159,520.006 813.159,517.579C813.159,504.96 813.159,468.716 813.159,456.097C813.159,453.67 814.853,451.702 816.943,451.702C816.944,451.702 816.946,451.702 816.947,451.702Z" style="fill:url(#_Linear26);"/>
                </g>
                <g transform="matrix(-1.83697e-16,1,-7.0056,-1.28691e-15,4573.95,69.6676)">
                    <path d="M416.862,485.777L419.077,490.766L414.646,490.766L416.862,485.777Z" style="fill:url(#_Linear27);"/>
                </g>
            </g>
            <g transform="matrix(1,0,0,3.1629,0,-773.524)">
                <path d="M525.336,390.952C524.312,390.952 523.483,390.689 523.483,390.366C523.483,385.993 523.483,358.62 523.483,358.62C523.483,358.358 523.812,358.107 524.397,357.922C524.983,357.737 525.777,357.633 526.605,357.633C527.433,357.633 528.228,357.737 528.813,357.922C529.399,358.107 529.727,358.358 529.727,358.62C529.727,358.62 529.727,385.993 529.727,390.366C529.727,390.689 528.898,390.952 527.875,390.952L525.336,390.952Z" style="fill:rgb(235,234,232);"/>
            </g>
        </g>
    </g>
    <defs>
        <linearGradient id="_Linear1" x1="0" y1="0" x2="1" y2="0" gradientUnits="userSpaceOnUse" gradientTransform="matrix(6.71659e-15,-109.69,109.69,6.71659e-15,657.763,535.573)"><stop offset="0" style="stop-color:rgb(249,98,4);stop-opacity:1"/><stop offset="1" style="stop-color:rgb(249,136,6);stop-opacity:1"/></linearGradient>
        <linearGradient id="_Linear2" x1="0" y1="0" x2="1" y2="0" gradientUnits="userSpaceOnUse" gradientTransform="matrix(30.7299,-82.4911,82.4911,30.7299,619.251,590.727)"><stop offset="0" style="stop-color:rgb(220,73,6);stop-opacity:1"/><stop offset="1" style="stop-color:rgb(225,74,3);stop-opacity:1"/></linearGradient>
        <linearGradient id="_Linear3" x1="0" y1="0" x2="1" y2="0" gradientUnits="userSpaceOnUse" gradientTransform="matrix(2.6875e-15,-43.8902,43.8902,2.6875e-15,563.315,488.499)"><stop offset="0" style="stop-color:rgb(210,69,1);stop-opacity:1"/><stop offset="1" style="stop-color:rgb(219,77,7);stop-opacity:1"/></linearGradient>
        <linearGradient id="_Linear4" x1="0" y1="0" x2="1" y2="0" gradientUnits="userSpaceOnUse" gradientTransform="matrix(2.6875e-15,-43.8902,43.8902,2.6875e-15,563.315,488.499)"><stop offset="0" style="stop-color:rgb(210,69,1);stop-opacity:1"/><stop offset="1" style="stop-color:rgb(219,77,7);stop-opacity:1"/></linearGradient>
        <linearGradient id="_Linear5" x1="0" y1="0" x2="1" y2="0" gradientUnits="userSpaceOnUse" gradientTransform="matrix(2.6875e-15,-43.8902,43.8902,2.6875e-15,563.315,488.499)"><stop offset="0" style="stop-color:rgb(210,69,1);stop-opacity:1"/><stop offset="1" style="stop-color:rgb(219,77,7);stop-opacity:1"/></linearGradient>
        <linearGradient id="_Linear6" x1="0" y1="0" x2="1" y2="0" gradientUnits="userSpaceOnUse" gradientTransform="matrix(2.6875e-15,-43.8902,43.8902,2.6875e-15,563.315,488.499)"><stop offset="0" style="stop-color:rgb(210,69,1);stop-opacity:1"/><stop offset="1" style="stop-color:rgb(219,77,7);stop-opacity:1"/></linearGradient>
        <linearGradient id="_Linear7" x1="0" y1="0" x2="1" y2="0" gradientUnits="userSpaceOnUse" gradientTransform="matrix(-35.6607,-140.698,140.698,-35.6607,563.315,607.251)"><stop offset="0" style="stop-color:rgb(240,240,238);stop-opacity:1"/><stop offset="1" style="stop-color:rgb(234,233,232);stop-opacity:1"/></linearGradient>
        <linearGradient id="_Linear8" x1="0" y1="0" x2="1" y2="0" gradientUnits="userSpaceOnUse" gradientTransform="matrix(3.26011e-15,-53.2416,53.2416,3.26011e-15,558.559,592.997)"><stop offset="0" style="stop-color:rgb(205,77,19);stop-opacity:1"/><stop offset="1" style="stop-color:rgb(228,83,6);stop-opacity:1"/></linearGradient>
        <linearGradient id="_Linear9" x1="0" y1="0" x2="1" y2="0" gradientUnits="userSpaceOnUse" gradientTransform="matrix(2.84582e-15,-46.4758,46.4758,2.84582e-15,560.587,574.51)"><stop offset="0" style="stop-color:rgb(247,97,7);stop-opacity:1"/><stop offset="1" style="stop-color:rgb(252,122,6);stop-opacity:1"/></linearGradient>
        <linearGradient id="_Linear10" x1="0" y1="0" x2="1" y2="0" gradientUnits="userSpaceOnUse" gradientTransform="matrix(7.94721e-15,-129.788,129.788,7.94721e-15,470.199,551.732)"><stop offset="0" style="stop-color:rgb(230,84,19);stop-opacity:1"/><stop offset="0.45" style="stop-color:rgb(230,84,19);stop-opacity:1"/><stop offset="0.55" style="stop-color:rgb(250,143,20);stop-opacity:1"/><stop offset="1" style="stop-color:rgb(250,143,20);stop-opacity:1"/></linearGradient>
        <linearGradient id="_Linear11" x1="0" y1="0" x2="1" y2="0" gradientUnits="userSpaceOnUse" gradientTransform="matrix(7.94721e-15,-584.979,129.788,3.58197e-14,470.199,779.327)"><stop offset="0" style="stop-color:rgb(230,84,19);stop-opacity:1"/><stop offset="0.45" style="stop-color:rgb(230,84,19);stop-opacity:1"/><stop offset="0.55" style="stop-color:rgb(250,143,20);stop-opacity:1"/><stop offset="1" style="stop-color:rgb(250,143,20);stop-opacity:1"/></linearGradient>
        <linearGradient id="_Linear12" x1="0" y1="0" x2="1" y2="0" gradientUnits="userSpaceOnUse" gradientTransform="matrix(7.94721e-15,-411.325,129.788,2.51864e-14,470.199,692.5)"><stop offset="0" style="stop-color:rgb(230,84,19);stop-opacity:1"/><stop offset="0.45" style="stop-color:rgb(230,84,19);stop-opacity:1"/><stop offset="0.55" style="stop-color:rgb(250,143,20);stop-opacity:1"/><stop offset="1" style="stop-color:rgb(250,143,20);stop-opacity:1"/></linearGradient>
        <linearGradient id="_Linear13" x1="0" y1="0" x2="1" y2="0" gradientUnits="userSpaceOnUse" gradientTransform="matrix(7.94721e-15,-205.521,129.788,1.25845e-14,470.199,589.598)"><stop offset="0" style="stop-color:rgb(230,84,19);stop-opacity:1"/><stop offset="0.45" style="stop-color:rgb(230,84,19);stop-opacity:1"/><stop offset="0.55" style="stop-color:rgb(250,143,20);stop-opacity:1"/><stop offset="1" style="stop-color:rgb(250,143,20);stop-opacity:1"/></linearGradient>
        <linearGradient id="_Linear14" x1="0" y1="0" x2="1" y2="0" gradientUnits="userSpaceOnUse" gradientTransform="matrix(7.94721e-15,-129.788,129.788,7.94721e-15,470.199,551.732)"><stop offset="0" style="stop-color:rgb(230,84,19);stop-opacity:1"/><stop offset="0.45" style="stop-color:rgb(230,84,19);stop-opacity:1"/><stop offset="0.55" style="stop-color:rgb(250,143,20);stop-opacity:1"/><stop offset="1" style="stop-color:rgb(250,143,20);stop-opacity:1"/></linearGradient>
        <linearGradient id="_Linear15" x1="0" y1="0" x2="1" y2="0" gradientUnits="userSpaceOnUse" gradientTransform="matrix(7.94721e-15,-70.2715,129.788,4.30289e-15,470.199,521.973)"><stop offset="0" style="stop-color:rgb(230,84,19);stop-opacity:1"/><stop offset="0.45" style="stop-color:rgb(230,84,19);stop-opacity:1"/><stop offset="0.55" style="stop-color:rgb(250,143,20);stop-opacity:1"/><stop offset="1" style="stop-color:rgb(250,143,20);stop-opacity:1"/></linearGradient>
        <linearGradient id="_Linear16" x1="0" y1="0" x2="1" y2="0" gradientUnits="userSpaceOnUse" gradientTransform="matrix(7.94721e-15,-150.742,129.788,9.23031e-15,470.199,562.209)"><stop offset="0" style="stop-color:rgb(230,84,19);stop-opacity:1"/><stop offset="0.45" style="stop-color:rgb(230,84,19);stop-opacity:1"/><stop offset="0.55" style="stop-color:rgb(250,143,20);stop-opacity:1"/><stop offset="1" style="stop-color:rgb(250,143,20);stop-opacity:1"/></linearGradient>
        <linearGradient id="_Linear17" x1="0" y1="0" x2="1" y2="0" gradientUnits="userSpaceOnUse" gradientTransform="matrix(7.94721e-15,-411.325,129.788,2.51864e-14,470.199,692.5)"><stop offset="0" style="stop-color:rgb(230,84,19);stop-opacity:1"/><stop offset="0.45" style="stop-color:rgb(230,84,19);stop-opacity:1"/><stop offset="0.55" style="stop-color:rgb(250,143,20);stop-opacity:1"/><stop offset="1" style="stop-color:rgb(250,143,20);stop-opacity:1"/></linearGradient>
        <linearGradient id="_Linear18" x1="0" y1="0" x2="1" y2="0" gradientUnits="userSpaceOnUse" gradientTransform="matrix(7.94721e-15,-150.742,129.788,9.23031e-15,470.199,562.209)"><stop offset="0" style="stop-color:rgb(230,84,19);stop-opacity:1"/><stop offset="0.45" style="stop-color:rgb(230,84,19);stop-opacity:1"/><stop offset="0.55" style="stop-color:rgb(250,143,20);stop-opacity:1"/><stop offset="1" style="stop-color:rgb(250,143,20);stop-opacity:1"/></linearGradient>
        <linearGradient id="_Linear19" x1="0" y1="0" x2="1" y2="0" gradientUnits="userSpaceOnUse" gradientTransform="matrix(3.2868e-16,-4.98894,5.36775,3.05485e-16,417.349,490.766)"><stop offset="0" style="stop-color:rgb(230,84,19);stop-opacity:1"/><stop offset="1" style="stop-color:rgb(250,143,20);stop-opacity:0"/></linearGradient>
        <linearGradient id="_Linear20" x1="0" y1="0" x2="1" y2="0" gradientUnits="userSpaceOnUse" gradientTransform="matrix(7.94721e-15,-129.788,129.788,7.94721e-15,778.93,551.732)"><stop offset="0" style="stop-color:rgb(230,84,19);stop-opacity:1"/><stop offset="0.45" style="stop-color:rgb(230,84,19);stop-opacity:1"/><stop offset="0.55" style="stop-color:rgb(250,143,20);stop-opacity:1"/><stop offset="1" style="stop-color:rgb(250,143,20);stop-opacity:1"/></linearGradient>
        <linearGradient id="_Linear21" x1="0" y1="0" x2="1" y2="0" gradientUnits="userSpaceOnUse" gradientTransform="matrix(7.94721e-15,-411.325,129.788,2.51864e-14,778.93,692.5)"><stop offset="0" style="stop-color:rgb(230,84,19);stop-opacity:1"/><stop offset="0.45" style="stop-color:rgb(230,84,19);stop-opacity:1"/><stop offset="0.55" style="stop-color:rgb(250,143,20);stop-opacity:1"/><stop offset="1" style="stop-color:rgb(250,143,20);stop-opacity:1"/></linearGradient>
        <linearGradient id="_Linear22" x1="0" y1="0" x2="1" y2="0" gradientUnits="userSpaceOnUse" gradientTransform="matrix(7.94721e-15,-205.521,129.788,1.25845e-14,778.93,589.598)"><stop offset="0" style="stop-color:rgb(230,84,19);stop-opacity:1"/><stop offset="0.45" style="stop-color:rgb(230,84,19);stop-opacity:1"/><stop offset="0.55" style="stop-color:rgb(250,143,20);stop-opacity:1"/><stop offset="1" style="stop-color:rgb(250,143,20);stop-opacity:1"/></linearGradient>
        <linearGradient id="_Linear23" x1="0" y1="0" x2="1" y2="0" gradientUnits="userSpaceOnUse" gradientTransform="matrix(7.94721e-15,-129.788,129.788,7.94721e-15,778.93,551.732)"><stop offset="0" style="stop-color:rgb(230,84,19);stop-opacity:1"/><stop offset="0.45" style="stop-color:rgb(230,84,19);stop-opacity:1"/><stop offset="0.55" style="stop-color:rgb(250,143,20);stop-opacity:1"/><stop offset="1" style="stop-color:rgb(250,143,20);stop-opacity:1"/></linearGradient>
        <linearGradient id="_Linear24" x1="0" y1="0" x2="1" y2="0" gradientUnits="userSpaceOnUse" gradientTransform="matrix(7.94721e-15,-70.2715,129.788,4.30289e-15,778.93,521.973)"><stop offset="0" style="stop-color:rgb(230,84,19);stop-opacity:1"/><stop offset="0.45" style="stop-color:rgb(230,84,19);stop-opacity:1"/><stop offset="0.55" style="stop-color:rgb(250,143,20);stop-opacity:1"/><stop offset="1" style="stop-color:rgb(250,143,20);stop-opacity:1"/></linearGradient>
        <linearGradient id="_Linear25" x1="0" y1="0" x2="1" y2="0" gradientUnits="userSpaceOnUse" gradientTransform="matrix(7.94721e-15,-150.742,129.788,9.23031e-15,778.93,562.209)"><stop offset="0" style="stop-color:rgb(230,84,19);stop-opacity:1"/><stop offset="0.45" style="stop-color:rgb(230,84,19);stop-opacity:1"/><stop offset="0.55" style="stop-color:rgb(250,143,20);stop-opacity:1"/><stop offset="1" style="stop-color:rgb(250,143,20);stop-opacity:1"/></linearGradient>
        <linearGradient id="_Linear26" x1="0" y1="0" x2="1" y2="0" gradientUnits="userSpaceOnUse" gradientTransform="matrix(7.94721e-15,-150.742,129.788,9.23031e-15,778.93,562.209)"><stop offset="0" style="stop-color:rgb(230,84,19);stop-opacity:1"/><stop offset="0.45" style="stop-color:rgb(230,84,19);stop-opacity:1"/><stop offset="0.55" style="stop-color:rgb(250,143,20);stop-opacity:1"/><stop offset="1" style="stop-color:rgb(250,143,20);stop-opacity:1"/></linearGradient>
        <linearGradient id="_Linear27" x1="0" y1="0" x2="1" y2="0" gradientUnits="userSpaceOnUse" gradientTransform="matrix(3.05485e-16,-4.98894,5.36775,3.2868e-16,417.349,490.766)"><stop offset="0" style="stop-color:rgb(230,84,19);stop-opacity:1"/><stop offset="1" style="stop-color:rgb(250,143,20);stop-opacity:0"/></linearGradient>
    </defs>
</svg>
